<?xml version="1.0" encoding="UTF-8" standalone="no"?>
<!-- Created with Inkscape (http://www.inkscape.org/) -->

<svg
   width="5.7451153mm"
   height="2.7606196mm"
   viewBox="0 0 5.7451153 2.7606196"
   version="1.1"
   id="svg1"
   xmlns:inkscape="http://www.inkscape.org/namespaces/inkscape"
   xmlns:sodipodi="http://sodipodi.sourceforge.net/DTD/sodipodi-0.dtd"
   xmlns="http://www.w3.org/2000/svg"
   xmlns:svg="http://www.w3.org/2000/svg">
  <sodipodi:namedview
     id="namedview1"
     pagecolor="#ffffff"
     bordercolor="#000000"
     borderopacity="0.25"
     inkscape:showpageshadow="2"
     inkscape:pageopacity="0.0"
     inkscape:pagecheckerboard="0"
     inkscape:deskcolor="#d1d1d1"
     inkscape:document-units="mm"
     inkscape:zoom="7.9891695"
     inkscape:cx="196.07795"
     inkscape:cy="329.00792"
     inkscape:window-width="2256"
     inkscape:window-height="1398"
     inkscape:window-x="-11"
     inkscape:window-y="-11"
     inkscape:window-maximized="1"
     inkscape:current-layer="layer1" />
  <defs
     id="defs1" />
  <g
     inkscape:label="Layer 1"
     inkscape:groupmode="layer"
     id="layer1"
     transform="translate(-61.089101,-86.874906)">
    <path
       style="font-size:3.175px;font-family:'Young Serif';-inkscape-font-specification:'Young Serif';fill:#ffffff;stroke:#000000;stroke-width:0.3;stroke-linejoin:round;paint-order:stroke fill markers"
       d="m 64.055316,88.952112 q 0,0.127 0.05715,0.2159 0.06033,0.08572 0.1778,0.08572 0.04762,0 0.04762,0.04762 v 0.09525 q 0,0.04762 -0.04762,0.04762 h -0.784225 q -0.04763,0 -0.04763,-0.04762 v -0.09525 q 0,-0.04762 0.04763,-0.04762 0.117475,0 0.174625,-0.08572 0.05715,-0.0889 0.05715,-0.2159 v -1.203325 l -0.7493,1.51765 q -0.01587,0.03493 -0.05397,0.03493 h -0.2921 q -0.0381,0 -0.05715,-0.03493 l -0.746125,-1.51765 v 1.203325 q 0,0.127 0.05715,0.2159 0.05715,0.08572 0.174625,0.08572 0.04763,0 0.04763,0.04762 v 0.09525 q 0,0.04762 -0.04763,0.04762 h -0.784225 q -0.04762,0 -0.04762,-0.04762 v -0.09525 q 0,-0.04762 0.04762,-0.04762 0.117475,0 0.174625,-0.08572 0.06033,-0.0889 0.06033,-0.2159 v -1.651 q -0.04445,-0.0254 -0.09525,-0.03493 -0.04763,-0.0127 -0.1016,-0.0127 -0.04762,0 -0.04762,-0.04763 v -0.09525 q 0,-0.04762 0.04762,-0.04762 h 0.5969 q 0.04445,0 0.05715,0.02857 l 0.809625,1.6383 0.809625,-1.6383 q 0.0127,-0.02857 0.05715,-0.02857 h 0.5969 q 0.04762,0 0.04762,0.04762 v 0.09525 q 0,0.04763 -0.04762,0.04763 -0.0508,0 -0.1016,0.0127 -0.0508,0.0095 -0.09525,0.03493 z m 2.584448,-0.269875 q 0.01905,0.0095 0.03175,0.01905 0.0127,0.0064 0.0127,0.02223 0,0.0063 -0.0063,0.0254 -0.0508,0.123825 -0.1397,0.254 -0.08572,0.127 -0.2159,0.238125 -0.127,0.111125 -0.3048,0.1778 -0.174625,0.06668 -0.403225,0.06668 -0.381,0 -0.644525,-0.15875 -0.263525,-0.15875 -0.40005,-0.4318 -0.136525,-0.276225 -0.136525,-0.61595 0,-0.15875 0.03493,-0.3302 0.03493,-0.174625 0.1143,-0.339725 0.07937,-0.1651 0.212725,-0.295275 0.136525,-0.13335 0.33655,-0.20955 0.200025,-0.07937 0.473075,-0.07937 0.2286,0 0.3937,0.05715 0.1651,0.05715 0.276225,0.14605 0.111125,0.08572 0.1778,0.180975 0.06668,0.09525 0.09525,0.1778 0.02857,0.08255 0.02857,0.123825 0,0.04445 -0.05397,0.0635 l -0.38735,0.136525 q -0.03175,0.0127 -0.05715,0.0127 -0.0381,0 -0.0381,-0.03175 0,-0.0063 0.0032,-0.04762 0.0032,-0.04127 0.0032,-0.05715 0,-0.1143 -0.04127,-0.231775 -0.04127,-0.117475 -0.142875,-0.19685 -0.1016,-0.08255 -0.282575,-0.08255 -0.17145,0 -0.288925,0.08255 -0.1143,0.08255 -0.18415,0.2159 -0.06985,0.13335 -0.1016,0.282575 -0.02858,0.149225 -0.02858,0.282575 0,0.307975 0.07303,0.542925 0.07303,0.231775 0.225425,0.365125 0.155575,0.130175 0.390525,0.130175 0.23495,0 0.384175,-0.08255 0.1524,-0.08255 0.2413,-0.200025 0.09207,-0.12065 0.142875,-0.23495 0.01905,-0.04127 0.05397,-0.04127 0.01587,0 0.04127,0.0127 z"
       id="text11"
       aria-label="MC"
       inkscape:export-filename="favicon.svg"
       inkscape:export-xdpi="73.621521"
       inkscape:export-ydpi="73.621521" />
  </g>
</svg>
